# xmcd
#
# Track frame offsets:
#	150
#	42143
#	71993
#	91587
#	104614
#	124159
#	148362
#	166336
#	181667
#	201219
#	231415
#	242992
#
# Disc length: 3422 seconds
#
# Revision: 1
# Processed by: cddbd v1.5.2PL0 Copyright (c) Steve Scherf et al.
# Submitted via: EasyCDDAExtractor 10.0.1.1
#
DISCID=af0d5c0c
DTITLE=Various Artist - Contemporary Music From Ireland Volume 3
DYEAR=2001
DGENRE=Other
TTITLE0=Kevin Volans - This is how it is
TTITLE1=Siobhán Cleary - Deuce
TTITLE2=Marian Ingoldsby - Red Shoes
TTITLE3=Piers Hellawell - Sound Carvings from the Water's Edge (excerpt)
TTITLE4=Michael Holohan - O Breath
TTITLE5=John Gibson - Sliabh Luachra (excerpt)
TTITLE6=John Wolf Brennan - Bow Road
TTITLE7=Rhona Clarke - The Old Men Admiring Themselves in the Water
TTITLE8=Gráinne Mulvey - Sextet Uno (excerpt)
TTITLE9=Donal Hurley - Suspended Sentence
TTITLE10=Michael McGlynn - From Nowhere to Nowhere
TTITLE11=Donnacha Dennehy - Work for Organ
EXTD=
EXTT0=
EXTT1=
EXTT2=
EXTT3=
EXTT4=
EXTT5=
EXTT6=
EXTT7=
EXTT8=
EXTT9=
EXTT10=
EXTT11=
PLAYORDER=
